<?xml version="1.0" encoding="UTF-8" standalone="no"?>
<!-- Created with Inkscape (http://www.inkscape.org/) -->

<svg
   xmlns:dc="http://purl.org/dc/elements/1.1/"
   xmlns:cc="http://creativecommons.org/ns#"
   xmlns:rdf="http://www.w3.org/1999/02/22-rdf-syntax-ns#"
   xmlns:svg="http://www.w3.org/2000/svg"
   xmlns="http://www.w3.org/2000/svg"
   xmlns:sodipodi="http://sodipodi.sourceforge.net/DTD/sodipodi-0.dtd"
   xmlns:inkscape="http://www.inkscape.org/namespaces/inkscape"
   width="102"
   height="100"
   viewBox="0 0 1000 203.713"
   id="svg4161"
   version="1.1"
   inkscape:version="0.91 r13725"
   sodipodi:docname="Lazada No Slogan.svg">
  <defs
     id="defs4163" />
  <sodipodi:namedview
     id="base"
     pagecolor="#ffffff"
     bordercolor="#666666"
     borderopacity="1.0"
     inkscape:pageopacity="0.0"
     inkscape:pageshadow="2"
     inkscape:zoom="0.7"
     inkscape:cx="422.57719"
     inkscape:cy="170.48598"
     inkscape:document-units="px"
     inkscape:current-layer="layer1"
     showgrid="false"
     units="px"
     inkscape:window-width="1366"
     inkscape:window-height="705"
     inkscape:window-x="-8"
     inkscape:window-y="-8"
     inkscape:window-maximized="1" />
  <metadata
     id="metadata4166">
    <rdf:RDF>
      <cc:Work
         rdf:about="">
        <dc:format>image/svg+xml</dc:format>
        <dc:type
           rdf:resource="http://purl.org/dc/dcmitype/StillImage" />
        <dc:title></dc:title>
      </cc:Work>
    </rdf:RDF>
  </metadata>
  <g
     inkscape:label="Layer 1"
     inkscape:groupmode="layer"
     id="layer1"
     transform="translate(0,-848.64918)">
    <path
       style="clip-rule:evenodd;fill:#01192b;fill-rule:evenodd"
       inkscape:connector-curvature="0"
       d="m 0,848.6496 15.866359,0 0,187.845 85.592221,0 -7.488933,15.8663 c -31.321975,0 -62.646431,0 -93.969647,0 L 0,848.6496 Z"
       id="path4728" />
    <path
       style="clip-rule:evenodd;fill:#01192b;fill-rule:evenodd"
       inkscape:connector-curvature="0"
       d="m 214.53834,848.6496 -15.86636,0 -88.67589,203.7113 15.86636,0 23.07731,-53.01564 c 2.74616,-5.23542 9.10834,-9.97076 17.63219,-14.0968 13.50365,-6.53839 32.35939,-10.58379 53.35817,-10.58379 18.58149,0 44.6941,3.63341 61.53333,15.28934 l 9.84543,-12.44019 c -3.30207,-2.3838 -7.02855,-4.58146 -11.12233,-6.56196 -4.52314,-2.19022 -9.53148,-4.13598 -14.93443,-5.79633 l -50.71378,-116.50593 0,0 z m -52.82334,121.34427 44.88768,-103.11893 40.97879,94.13842 c -8.69386,-1.46677 -17.99826,-2.2622 -27.65383,-2.2622 -22.36008,0 -42.84512,4.27124 -58.21264,11.24271 l 0,0 z m 97.99394,18.87434 c 3.59494,1.17266 6.91811,2.49424 9.92485,3.9486 1.48414,0.71849 2.75732,1.38486 3.8059,1.9867 1.08083,0.6217 2.17036,1.31289 3.25243,2.06116 l 3.38523,2.34161 23.13813,53.15342 -15.86636,0 -27.64018,-63.49149 z"
       id="path4730" />
    <path
       style="clip-rule:evenodd;fill:#01192b;fill-rule:evenodd"
       inkscape:connector-curvature="0"
       d="m 552.02296,848.6496 -15.86635,0 -88.6759,203.7113 15.86636,0 23.07857,-53.01564 c 2.74615,-5.23542 9.10708,-9.97076 17.63219,-14.0968 13.50364,-6.53839 32.35938,-10.58379 53.35692,-10.58379 18.58148,0 44.6941,3.63341 61.53457,15.28934 l 9.84543,-12.44019 c -3.30207,-2.3838 -7.02731,-4.58146 -11.12233,-6.56196 -4.52438,-2.19022 -9.53149,-4.13598 -14.93443,-5.79633 l -50.71503,-116.50593 0,0 z m -52.82208,121.34427 44.8889,-103.11893 40.9788,94.13842 c -8.69511,-1.46677 -17.9995,-2.2622 -27.65383,-2.2622 -22.36256,0 -42.8476,4.27124 -58.21387,11.24271 l 0,0 z m 97.99393,18.87434 c 3.59369,1.17266 6.91687,2.49424 9.92361,3.9486 1.48413,0.71849 2.75856,1.38486 3.8059,1.9867 1.07959,0.6217 2.17036,1.31289 3.25243,2.06116 l 3.38523,2.34161 23.13812,53.15342 -15.86636,0 -27.63893,-63.49149 z"
       id="path4732" />
    <path
       style="clip-rule:evenodd;fill:#01192b;fill-rule:evenodd"
       inkscape:connector-curvature="0"
       d="m 911.3241,848.6496 -15.86636,0 -88.67589,203.7113 15.86636,0 23.07856,-53.01564 c 2.74615,-5.23542 9.10833,-9.97076 17.63218,-14.0968 13.50366,-6.53839 32.35939,-10.58379 53.35694,-10.58379 18.58272,0 44.69532,3.63341 61.53456,15.28934 l 9.84544,-12.44019 c -3.30208,-2.3838 -7.02731,-4.58146 -11.12234,-6.56196 -4.52314,-2.19022 -9.53148,-4.13598 -14.93319,-5.79633 L 911.3241,848.6496 l 0,0 z m -52.8221,121.34427 44.88892,-103.11893 40.97879,94.13842 c -8.69386,-1.46677 -17.99949,-2.2622 -27.65382,-2.2622 -22.36256,0 -42.84762,4.27124 -58.21389,11.24271 l 0,0 z m 97.99271,18.87434 c 3.59369,1.17266 6.9181,2.49424 9.92485,3.9486 1.48413,0.71849 2.75731,1.38486 3.80464,1.9867 1.08084,0.6217 2.17037,1.31289 3.25245,2.06116 l 3.38522,2.34161 23.13813,53.15342 -15.86636,0 -27.63893,-63.49149 z"
       id="path4734" />
    <polygon
       style="clip-rule:evenodd;fill:#01192b;fill-rule:evenodd"
       points="278.644,18.966 272.609,6.18 376.91,6.18 376.91,18.966 289.551,157.556 371.762,157.556 365.728,170.342 276.305,170.342 273.288,163.073 361.106,18.966 "
       id="polygon4736"
       transform="matrix(1.2409165,0,0,1.2409165,-22.357594,840.98074)" />
    <path
       style="clip-rule:evenodd;fill:#01192b;fill-rule:evenodd"
       inkscape:connector-curvature="0"
       d="m 657.62001,950.50651 0,-101.85567 41.3858,0 c 29.81178,0 51.47689,2.45826 64.94953,7.32886 19.35085,6.95037 34.48879,18.91405 45.36914,36.03125 10.48575,16.45207 15.93585,35.93695 16.31681,58.49556 -0.3822,22.55738 -5.83106,42.04226 -16.31681,58.49559 -10.88035,17.1159 -26.01829,29.0821 -45.36914,36.0312 -13.4714,4.8719 -35.13651,7.3289 -64.94953,7.3289 l -41.3858,0 0,-101.85569 0,0 z m 15.61568,86.91259 24.30211,0 c 29.03994,0 49.13778,-1.9061 60.37923,-5.7145 15.79439,-5.4575 28.27304,-15.1788 37.30816,-29.293 9.05497,-14.1502 15.44073,-31.40514 15.44073,-51.79341 0,-20.38701 -6.38576,-37.64319 -15.44073,-51.79213 -9.03512,-14.11419 -21.51501,-23.83552 -37.30816,-29.29308 -11.2427,-3.80961 -31.33929,-5.71565 -60.37923,-5.71565 l -24.30211,0 0,173.60177 z"
       id="path4738" />
  </g>
</svg>
